

                         BONIIN{BOW}(Releases)                                     









Release tittle:open season 1080p brrip[Dual-Audio][Engl-Hindi]~BONIIN(boniin-Release)
Storyline: 
A grizzly bear named Boog, domesticated by a park ranger, Beth, 
helps deer friend Elliot escape from the mullet-sporting hunter, 
Shaw. When the Elliot decides to return the favor to help Boog 
escape from Beth he finds that Boog is very happy with his domesticated 
home. After a misunderstanding, Beth is convinced that Boog is 
reverting to his wild nature and releases him in the woods just 
as hunting season begins. Boog has no idea how to survive outside 
of his garage home with his beloved Beth. Elliott and Boog 
develop a strong bond not only between themselves but also with 
the wild animals and attempt to drive the hunters out of the forest.
_______________________________________________________________

Cast:
        Martin Lawrence	... 	Boog (voice)
	Ashton Kutcher	... 	Elliot (voice)
	Gary Sinise	... 	Shaw (voice)
	Debra Messing	... 	Beth (voice)
	Billy Connolly	... 	McSquizzy (voice)
	Georgia Engel	... 	Bobbie (voice)
	Jon Favreau	... 	Reilly (voice)
	Jane Krakowski	... 	Giselle (voice)
	Gordon Tootoosis... 	Gordy (voice)
	Patrick Warburton... 	Ian (voice)
	Cody Cameron	... 	Mr. Weenie (voice)
	Nika Futterman	... 	Rosie (voice)
	Danny Mann	... 	Serge (voice)
	Jack McGee	... 	Hunter (voice)
	Michelle Murdocca... 	Maria (voice)

__________________________________________________________________________


INFO:

Title..................: Open Season 
Genre..................: Animation | Adventure | Comedy | Family
Directer...............: Roger Allers,Jill Culton
Writer.................: Steve Moore & John B. Carls 
year...................: 29 September 2006 (USA) 
IMDB...................: http://www.imdb.com/title/tt0400717
User Rating............: 6.1/10 -  13,583 votes »   
Awards.................: 1 win & 7 nominations 
Run time...............: 1h 26mn 15sec
Source.................: BluRay DTS.x264 ALLiANCE Extend Edition
size ..................: 837 MB
Languages..............: English.Hindi
Subtittle..............: English
Ripper.................: BONIIN[BOW]

___________________________________________________________________________

Video

Format                           : AVI
Format/Info                      : Audio Video Interleave
Format profile                   : OpenDML
Duration                         : 1h 26mn
ID                               : 0
Format                           : AVC
Format/Info                      : Advanced Video Codec
Format profile                   : High@L4.0
Format settings, CABAC           : Yes
Format settings, ReFrames        : 3 frames
Codec ID                         : H.264/MPEG-4 AVC
Duration                         : 1h 26mn
Bit rate                         : 1065 kbs
Nominal bit rate                 : 1 020 Kbps
Overall bit rate                 : 1 357 Kbps
Width                            : 1 920 pixels
Height                           : 1 040 pixels
Display aspect ratio             : 16:9
Frame rate                       : 23.976 fps
Resolution                       : 8 bits
Colorimetry                      : 4:2:0
Scan type                        : Progressive
Bits/(Pixel*Frame)               : 0.020
Stream size                      : 596 MiB (71%)
Writing library                  : x264 core 65 r998M
Writing application              : AVI-Mux GUI 1.17.8, Aug 30 2009  12:36:58
_______________________________________________________________________________


Audio #1 :English
ID                               : 1
Format                           : AC-3
Format/Info                      : Audio Coding 3
Codec ID                         : 2000
Duration                         : 1h 26mn
Bit rate mode                    : Constant
Bit rate                         : 160 Kbps
Channel(s)                       : 6 channels
Channel positions                : Front: L C R, Side: L R, LFE
Sampling rate                    : 48.0 KHz
Stream size                      : 98.7 MiB (12%)
Alignment                        : Aligned on interleaves
Interleave, duration             : 64 ms (1.53 video frames)
Interleave, preload duration     : 192 ms

____________________________________________________________________________


Audio #2 :Hindi
ID                               : 2
Format                           : AC-3
Format/Info                      : Audio Coding 3
Codec ID                         : 2000
Duration                         : 1h 26mn
Bit rate mode                    : Constant
Bit rate                         : 224 Kbps
Channel(s)                       : 2 channels
Channel positions                : Front: L R
Sampling rate                    : 48.0 KHz
Stream size                      : 138 MiB (16%)
Alignment                        : Aligned on interleaves
Interleave, duration             : 64 ms (1.54 video frames)
Interleave, preload duration     : 192 ms
__________________________________________________________________________


Screen shots:
 
http://img23.imageshack.us/img23/4192/stills60723121.jpg 
http://img651.imageshack.us/img651/3979/stills60724121fl.jpg 
http://img15.imageshack.us/img15/6857/stills60725121.jpg 
http://img21.imageshack.us/img21/4654/stills60726121.jpg 
http://img88.imageshack.us/img88/9467/stills60727121.jpg 
http://img232.imageshack.us/img232/8859/stills60728121.jpg 
http://img146.imageshack.us/img146/518/stills60729121.jpg 
http://img255.imageshack.us/img255/9085/stills60730121.jpg 
http://img177.imageshack.us/img177/4073/stills60731121.jpg 
http://img231.imageshack.us/img231/8800/stills60732121.jpg 
http://img687.imageshack.us/img687/7868/stills60733121.jpg 
http://img197.imageshack.us/img197/6274/stills60734121.jpg 
http://img405.imageshack.us/img405/3409/stills60735121.jpg 
http://img96.imageshack.us/img96/5981/stills60736121.jpg


___________________________________________________________________________


Ripper notes:

[1] play this movie, use first k-lite codes n use only media player classic- home cinema,

[2]vlc palyer or other player not support this file plz use only  media player classic- home cinema,

[3]If u wanna see in dvd standlaone hometheater then use ConvertXtoDVD 

[4] Enjoy this 1080p rip with higher resolution n higher audio bitrate just in 837mb small size